<svg id="Layer_2" data-name="Layer 2" xmlns="http://www.w3.org/2000/svg" viewBox="0 0 73.56 268.01">
  <path d="M104.64,30.47l1,1.21L103.76,40l6.42,79.56,5.28,7.26A52.13,52.13,0,0,1,123,141.79l1.28,4.11V282.57a21.61,21.61,0,0,1-18,9.63H69.64a19.37,19.37,0,0,1-15.92-8.34V149.21a17.91,17.91,0,0,1,2.2-8.62l9.34-17.15,9.63-84.7L73.6,33h0a8.45,8.45,0,0,1,8-5.78h15.9A9.37,9.37,0,0,1,104.64,30.47Z" transform="translate(-52.22 -25.69)" fill="#424242" stroke="#424242" stroke-miterlimit="10" stroke-width="3"/>
</svg>
